<svg xmlns="http://www.w3.org/2000/svg" width="28.137" height="49.763" viewBox="0 0 28.137 49.763">
  <g id="Intersection_1" data-name="Intersection 1" transform="translate(-14 -4.118)" fill="#0b4d38">
    <path d="M 22.50040054321289 53.3255500793457 C 19.7090950012207 52.99901962280273 17.02184104919434 52.22048187255859 14.50040054321289 51.00740432739258 L 14.50040054321289 6.992180824279785 C 17.02181625366211 5.779109954833984 19.70907783508301 5.000574111938477 22.50040054321289 4.674036026000977 L 22.50040054321289 14.57730197906494 L 22.50040054321289 15.43082237243652 L 23.24491119384766 15.01344203948975 C 24.10070037841797 14.53366184234619 25.0144100189209 14.1156120300293 25.96065139770508 13.77090167999268 C 27.92919158935547 13.05453205108643 30.00742149353027 12.67585182189941 31.97047996520996 12.67585182189941 C 34.19234085083008 12.67585182189941 36.23217010498047 13.14667224884033 37.86944198608398 14.0374116897583 C 39.51929092407227 14.93499183654785 40.69002151489258 16.22992134094238 41.25506210327148 17.78222274780273 C 42.06574249267578 20.00936126708984 41.58325958251953 22.56917190551758 39.89648056030273 24.99010276794434 C 38.17243194580078 27.46454238891602 35.40975952148438 29.48719215393066 32.11740112304688 30.68545150756836 C 30.14862060546875 31.40221214294434 28.07032012939453 31.78107261657715 26.10712051391602 31.78108215332031 C 25.06525993347168 31.78108215332031 24.05561065673828 31.67684173583984 23.10622978210449 31.47123146057129 L 22.50040054321289 31.34002304077148 L 22.50040054321289 31.95990180969238 L 22.50040054321289 53.3255500793457 Z" stroke="none"/>
    <path d="M 22.00040054321289 52.7573127746582 L 22.00040054321289 31.95990180969238 L 22.00040054321289 30.72015190124512 L 23.21206092834473 30.98256301879883 C 24.12670135498047 31.18064117431641 25.10074043273926 31.28108215332031 26.10711097717285 31.28108215332031 C 28.01261138916016 31.28107261657715 30.03177070617676 30.91265296936035 31.9463996887207 30.21560287475586 C 35.14284133911133 29.0522518157959 37.82054138183594 27.09496116638184 39.48624038696289 24.70427131652832 C 41.07733154296875 22.4206714630127 41.53865051269531 20.02311134338379 40.78522109985352 17.9532527923584 C 40.26251220703125 16.51725196838379 39.171630859375 15.3150520324707 37.63048934936523 14.47661209106445 C 36.06632995605469 13.62565231323242 34.1091194152832 13.17585182189941 31.97047996520996 13.17585182189941 C 30.06509971618652 13.17585182189941 28.04600143432617 13.54411220550537 26.13179016113281 14.24069213867188 C 25.21080017089844 14.57621192932129 24.32176971435547 14.98294162750244 23.48941993713379 15.44957256317139 L 22.00040054321289 16.28435134887695 L 22.00040054321289 14.57730197906494 L 22.00040054321289 5.242275238037109 C 19.56771087646484 5.58222770690918 17.22010231018066 6.275125026702881 15.00040054321289 7.308692455291748 L 15.00040054321289 50.69089126586914 C 17.22011566162109 51.72446441650391 19.56772994995117 52.41736602783203 22.00040054321289 52.7573127746582 M 23.00040054321289 53.88140106201172 C 19.78855133056641 53.57510375976563 16.75123023986816 52.68452072143555 14.00040054321289 51.31957244873047 L 14.00040054321289 6.680012226104736 C 16.75123023986816 5.315062046051025 19.78855133056641 4.424491882324219 23.00040054321289 4.118182182312012 L 23.00040054321289 14.57730197906494 C 23.86890029907227 14.0904016494751 24.80130004882813 13.66110229492188 25.78950119018555 13.30110168457031 C 27.88708877563477 12.53777980804443 29.99669075012207 12.17585372924805 31.97048187255859 12.17585372924805 C 36.58967590332031 12.17585372924805 40.46756362915039 14.15699291229248 41.72489929199219 17.61120223999023 C 43.51950073242188 22.54140281677246 39.29400253295898 28.6056022644043 32.28839874267578 31.15530204772949 C 30.19038009643555 31.91911697387695 28.08102416992188 32.28107070922852 26.10712432861328 32.28107833862305 C 25.02254486083984 32.28108596801758 23.97892379760742 32.17181777954102 23.00040054321289 31.95990180969238 L 23.00040054321289 53.88140106201172 Z" stroke="none" fill="#033324"/>
  </g>
</svg>
